<svg xmlns="http://www.w3.org/2000/svg" xmlns:xlink="http://www.w3.org/1999/xlink" width="12" height="12" viewBox="0 0 12 12">
    <defs>
        <path id="prefix__a" d="M0 12L12 12 12 0 0 0z"/>
    </defs>
    <g fill="none" fill-rule="evenodd">
        <mask id="prefix__b" fill="#fff">
            <use xlink:href="#prefix__a"/>
        </mask>
        <g fill="#374049">
            <path d="M6.85-1L7.275.591c.327.095.642.226.942.392L9.629.17l1.202 1.202-.814 1.413c.166.3.297.615.392.942L12 4.149v1.702l-1.591.423c-.095.327-.226.642-.392.942l.814 1.413-1.202 1.202-1.413-.814c-.3.166-.615.297-.942.392L6.851 11H5.149l-.423-1.591c-.327-.095-.642-.226-.942-.392l-1.413.814-1.202-1.202.814-1.413c-.166-.3-.297-.615-.392-.942L0 5.851V4.149l1.591-.423c.095-.327.226-.642.392-.942L1.17 1.371 2.371.169l1.413.814c.3-.166.615-.297.942-.392L5.149-1h1.702zM6 .124l-.373 1.402-.336.07c-.424.087-.827.254-1.195.497l-.286.187-1.249-.719.72 1.249-.188.286c-.243.368-.41.77-.498 1.195l-.07.336-1.4.373 1.4.373.07.336c.088.424.255.827.498 1.195l.187.286-.719 1.249 1.249-.72.286.188c.368.243.77.41 1.195.498l.336.07.373 1.4.373-1.4.336-.07c.424-.088.827-.255 1.195-.497l.286-.188 1.249.719-.72-1.249.188-.286c.243-.368.41-.77.498-1.195l.07-.336 1.4-.373-1.4-.373-.07-.336c-.088-.424-.255-.827-.498-1.195L8.72 2.81l.719-1.249-1.249.72-.286-.188c-.368-.243-.77-.41-1.195-.498l-.336-.07L6 .126zm.003 2.538l2.032 2.032-.786.786-.662-.663v2.457H5.476V4.761l-.719.719-.785-.786 2.031-2.032z" transform="translate(0 1)"/>
        </g>
    </g>
</svg>
