<svg xmlns="http://www.w3.org/2000/svg" width="14" height="12" viewBox="0 0 14 12">
    <path fill="#374049" fill-rule="evenodd" d="M2.5 9c.828 0 1.5.671 1.5 1.5S3.328 12 2.5 12C1.67 12 1 11.329 1 10.5S1.671 9 2.5 9zm0 1c-.276 0-.5.224-.5.5s.224.5.5.5.5-.224.5-.5-.224-.5-.5-.5zm11.045-.47v1.412H5.428V9.53h8.117zM2.34 4.235c.828 0 1.5.672 1.5 1.5 0 .829-.672 1.5-1.5 1.5s-1.5-.671-1.5-1.5c0-.828.672-1.5 1.5-1.5zm11.205 1.059v1.412H5.428V5.294h8.117zM2.34 5.135c-.332 0-.6.269-.6.6 0 .331.268.6.6.6.331 0 .6-.269.6-.6 0-.331-.269-.6-.6-.6zM2.34 0c.828 0 1.5.672 1.5 1.5 0 .829-.672 1.5-1.5 1.5S.84 2.329.84 1.5c0-.828.672-1.5 1.5-1.5zm11.205 1.059V2.47H5.428V1.059h8.117zM2.34.9c-.332 0-.6.269-.6.6 0 .331.268.6.6.6.331 0 .6-.269.6-.6 0-.331-.269-.6-.6-.6z"/>
</svg>
