<svg xmlns="http://www.w3.org/2000/svg" width="60" height="54" viewBox="0 0 60 54">
    <g fill="#374049">
        <path d="M59.427 46.806L33.658 2.173C32.895.85 31.528.06 30 .06c-1.527 0-2.895.79-3.658 2.112L.572 46.806c-.763 1.323-.763 2.902 0 4.224.764 1.323 2.132 2.112 3.659 2.112h51.538c1.527 0 2.895-.79 3.658-2.112.764-1.322.764-2.901 0-4.224zM56.38 49.27c-.076.132-.256.352-.61.352H4.231c-.354 0-.534-.22-.61-.352-.076-.13-.177-.397 0-.704l25.77-44.633c.176-.307.457-.352.609-.352.152 0 .433.045.61.352l25.769 44.633c.177.307.076.573 0 .704z"/>
        <path d="M28.241 16.066H31.761V34.839H28.241z"/>
        <circle cx="30.001" cy="40.706" r="2.347"/>
    </g>
</svg>
