<svg xmlns="http://www.w3.org/2000/svg" width="12" height="12" viewBox="0 0 12 12">
    <path fill="#FFF" d="M2.182 0v4.545c0 .302.244.546.545.546h5.091c.301 0 .546-.244.546-.546V0h.899c.171 0 .333.08.436.218l2.192 2.919c.07.094.109.21.109.327v7.99c0 .302-.244.546-.545.546H9.818V8.182c0-.301-.244-.546-.545-.546H2.727c-.301 0-.545.245-.545.546V12H.545c-.3 0-.545-.244-.545-.545V.545C0 .245.244 0 .545 0h1.637zm6.545 10.91V12H3.273v-1.09h5.454zm0-2.183v1.091H3.273v-1.09h5.454zM7.273 0v4h-4V0h4z"/>
</svg>
