<svg xmlns="http://www.w3.org/2000/svg" width="100" height="100" viewBox="0 0 100 100">
    <g fill="none" fill-rule="evenodd">
        <g fill="#7899FC">
            <circle cx="50" cy="50" r="50" fill-opacity=".1"/>
            <path fill-rule="nonzero" d="M50 15c-19.299 0-35 15.701-35 35s15.701 35 35 35 35-15.701 35-35-15.701-35-35-35zm0 65.625c-16.887 0-30.625-13.738-30.625-30.625S33.113 19.375 50 19.375 80.625 33.113 80.625 50 66.887 80.625 50 80.625z"/>
            <path fill-rule="nonzero" d="M52.143 62.023V66.8h-4.777v-4.777h4.777zM49.755 33.2c5.268 0 9.554 4.286 9.554 9.555 0 2.674-1.133 5.243-3.107 7.05l-4.059 3.715v3.725h-4.777v-5.829l5.61-5.135c1.003-.918 1.556-2.17 1.556-3.526 0-2.635-2.143-4.778-4.777-4.778-2.635 0-4.778 2.143-4.778 4.778H40.2c0-5.27 4.286-9.555 9.555-9.555z"/>
        </g>
    </g>
</svg>
