<svg xmlns="http://www.w3.org/2000/svg" width="12" height="13" viewBox="0 0 12 13">
    <path fill="#374049" fill-rule="evenodd" d="M12 11v1.09H0V11h12zM6 3c1.808 0 3.279 1.471 3.279 3.279 0 1.808-1.471 3.279-3.279 3.279-1.808 0-3.279-1.471-3.279-3.279C2.721 4.471 4.192 3 6 3zm3.188.891c.34.186.678.399 1.012.639 1.043.747 1.688 1.488 1.715 1.52.113.131.113.327 0 .459-.027.03-.671.772-1.715 1.52-.334.24-.673.452-1.012.638.5-.666.798-1.493.798-2.388 0-.895-.297-1.722-.798-2.388zm-6.376 0c-.5.666-.798 1.493-.798 2.388 0 .895.297 1.722.798 2.388-.34-.186-.678-.399-1.012-.639C.756 7.281.112 6.54.085 6.508c-.113-.131-.113-.327 0-.459.027-.03.671-.772 1.715-1.52.334-.24.673-.452 1.012-.638zm3.54 0h-.703v1.394c-.262.093-.476.286-.597.533l-.046.11H3.612v.702h1.394c.093.261.286.476.534.596l.109.046v1.395h.702V7.272c.262-.093.476-.286.597-.533l.046-.11h1.394v-.702H6.994c-.093-.261-.286-.476-.534-.596l-.109-.046V3.89zm-.356 2.036c.194 0 .351.158.351.352 0 .193-.157.35-.351.35-.194 0-.351-.157-.351-.35 0-.194.157-.352.35-.352zM12 0v1.09H0V0h12z"/>
</svg>
