<svg xmlns="http://www.w3.org/2000/svg" width="18" height="14" viewBox="0 0 18 14">
    <path fill="#374049" d="M15.755 0H5.218c-.186 0-.365.074-.496.206L.206 4.722c-.132.131-.206.31-.206.496v6.559c0 1.217.99 2.208 2.208 2.208h13.547c1.214 0 2.208-.982 2.208-2.208v-9.57C17.963.995 16.982 0 15.755 0zM5.268 1.646v2.82c0 .442-.36.802-.802.802h-2.82l3.622-3.622zm11.29 10.13c0 .438-.353.803-.803.803H2.208c-.443 0-.803-.36-.803-.802V6.674h3.06c1.218 0 2.209-.99 2.209-2.208v-3.06h9.081c.438 0 .803.353.803.802v9.569z"/>
</svg>
