<svg xmlns="http://www.w3.org/2000/svg" width="19" height="16" viewBox="0 0 19 16">
    <path fill="#374049" d="M17.817 2.545c-.408-.409-.951-.634-1.528-.634H9.307h-.001c-.195 0-.374-.094-.48-.251L7.722 0H2.162C.97 0 0 .97 0 2.162v11.606c0 1.193.97 2.163 2.162 2.163h14.126c1.193 0 2.162-.97 2.162-2.163V4.073c0-.577-.224-1.12-.633-1.528zM1.441 2.162c0-.397.324-.72.721-.72H6.95l.678 1.018c.042.062.086.12.133.177-.046.055-.09.113-.13.173L6.936 3.82H2.163c-.25 0-.493.042-.722.123V2.162zM17.01 13.768c0 .398-.323.721-.72.721H2.161c-.397 0-.72-.323-.72-.72V5.983c0-.193.074-.374.21-.51.137-.136.318-.211.51-.211h5.533l1.127-1.64.006-.01c.102-.153.295-.26.47-.26H16.287c.193 0 .374.075.51.21.136.137.211.318.211.51v9.695z"/>
</svg>
